<mxfile host="app.diagrams.net" modified="2024-05-06T18:51:35.291Z" agent="Mozilla/5.0 (Windows NT 10.0; Win64; x64) AppleWebKit/537.36 (KHTML, like Gecko) Chrome/122.0.0.0 YaBrowser/24.4.0.0 Safari/537.36" etag="UDrpErcw99AdZL9uK6JV" version="24.3.1" type="device">
  <diagram name="Страница — 1" id="5VcypZLlQ6uvXb26B1Fe">
    <mxGraphModel dx="2623" dy="1603" grid="1" gridSize="10" guides="1" tooltips="1" connect="1" arrows="1" fold="1" page="1" pageScale="1" pageWidth="1169" pageHeight="827" math="0" shadow="0">
      <root>
        <mxCell id="0" />
        <mxCell id="1" parent="0" />
        <mxCell id="xBIu8SL80qLhHsHWxJs5-32" value="" style="endArrow=block;dashed=1;endFill=0;endSize=12;html=1;rounded=0;fontSize=12;curved=1;" parent="1" source="xBIu8SL80qLhHsHWxJs5-30" target="xBIu8SL80qLhHsHWxJs5-8" edge="1">
          <mxGeometry width="160" relative="1" as="geometry">
            <mxPoint x="850" y="630" as="sourcePoint" />
            <mxPoint x="1010" y="630" as="targetPoint" />
          </mxGeometry>
        </mxCell>
        <mxCell id="xBIu8SL80qLhHsHWxJs5-52" value="" style="endArrow=block;dashed=1;endFill=0;endSize=12;html=1;rounded=0;fontSize=12;curved=1;" parent="1" source="xBIu8SL80qLhHsHWxJs5-42" target="xBIu8SL80qLhHsHWxJs5-8" edge="1">
          <mxGeometry width="160" relative="1" as="geometry">
            <mxPoint x="1740" y="578" as="sourcePoint" />
            <mxPoint x="1422" y="700" as="targetPoint" />
          </mxGeometry>
        </mxCell>
        <mxCell id="xBIu8SL80qLhHsHWxJs5-51" value="" style="endArrow=block;dashed=1;endFill=0;endSize=12;html=1;rounded=0;fontSize=12;curved=1;" parent="1" source="xBIu8SL80qLhHsHWxJs5-41" target="xBIu8SL80qLhHsHWxJs5-8" edge="1">
          <mxGeometry width="160" relative="1" as="geometry">
            <mxPoint x="1730" y="568" as="sourcePoint" />
            <mxPoint x="1412" y="690" as="targetPoint" />
          </mxGeometry>
        </mxCell>
        <mxCell id="xBIu8SL80qLhHsHWxJs5-8" value="&lt;p style=&quot;margin:0px;margin-top:4px;text-align:center;&quot;&gt;&lt;i&gt;&amp;lt;&amp;lt;Interface&amp;gt;&amp;gt;&lt;/i&gt;&lt;br&gt;&lt;b&gt;Unit&lt;/b&gt;&lt;/p&gt;&lt;hr size=&quot;1&quot; style=&quot;border-style:solid;&quot;&gt;&lt;p style=&quot;margin:0px;margin-left:4px;&quot;&gt;&lt;i&gt;# generateShift(level: UnlimitedNatural): String&lt;br&gt;+ add(uint: QSharedPointer&amp;lt;Unit&amp;gt;, flags: Flags = 0)&lt;/i&gt;&lt;/p&gt;&lt;p style=&quot;margin:0px;margin-left:4px;&quot;&gt;&lt;i&gt;+&amp;nbsp;compile(&lt;span style=&quot;background-color: initial;&quot;&gt;level: UnlimitedNatural = 0&lt;/span&gt;&lt;span style=&quot;background-color: initial;&quot;&gt;): String&lt;/span&gt;&lt;/i&gt;&lt;/p&gt;" style="verticalAlign=top;align=left;overflow=fill;html=1;whiteSpace=wrap;" parent="1" vertex="1">
          <mxGeometry x="1145" y="960" width="280" height="90" as="geometry" />
        </mxCell>
        <mxCell id="xBIu8SL80qLhHsHWxJs5-9" value="&lt;p style=&quot;margin:0px;margin-top:4px;text-align:center;&quot;&gt;&lt;i&gt;&amp;lt;&amp;lt;Interface&amp;gt;&amp;gt;&lt;/i&gt;&lt;br&gt;&lt;b&gt;LanguageConstructionFactory&lt;/b&gt;&lt;/p&gt;&lt;hr size=&quot;1&quot; style=&quot;border-style:solid;&quot;&gt;&lt;p style=&quot;margin:0px;margin-left:4px;&quot;&gt;&lt;i&gt;+ createClass(name: String): QSharedPointer&amp;lt;Unit&amp;gt;&lt;br&gt;+ createMethod(&lt;/i&gt;&lt;/p&gt;&lt;p style=&quot;margin:0px;margin-left:4px;&quot;&gt;&lt;i&gt;&lt;span style=&quot;white-space: pre;&quot;&gt;&#x9;&lt;/span&gt;name: String,&lt;/i&gt;&lt;/p&gt;&lt;p style=&quot;margin:0px;margin-left:4px;&quot;&gt;&lt;i&gt;&lt;span style=&quot;white-space: pre;&quot;&gt;&#x9;&lt;/span&gt;returnType: String = &quot;void&quot;,&lt;/i&gt;&lt;/p&gt;&lt;p style=&quot;margin:0px;margin-left:4px;&quot;&gt;&lt;i&gt;&lt;span style=&quot;white-space: pre;&quot;&gt;&#x9;&lt;/span&gt;flags: Flags = 0&lt;/i&gt;&lt;/p&gt;&lt;p style=&quot;margin:0px;margin-left:4px;&quot;&gt;&lt;i&gt;):&amp;nbsp;&lt;span style=&quot;background-color: initial;&quot;&gt;QSharedPointer&amp;lt;Unit&amp;gt;&lt;/span&gt;&lt;/i&gt;&lt;/p&gt;&lt;p style=&quot;margin:0px;margin-left:4px;&quot;&gt;&lt;i&gt;&lt;span style=&quot;background-color: initial;&quot;&gt;+&amp;nbsp;&lt;/span&gt;&lt;span style=&quot;background-color: initial;&quot;&gt;createStatement(text: String):&amp;nbsp;&lt;/span&gt;&lt;span style=&quot;background-color: initial;&quot;&gt;QSharedPointer&amp;lt;Unit&amp;gt;&lt;/span&gt;&lt;/i&gt;&lt;/p&gt;" style="verticalAlign=top;align=left;overflow=fill;html=1;whiteSpace=wrap;" parent="1" vertex="1">
          <mxGeometry x="1125" y="30" width="320" height="160" as="geometry" />
        </mxCell>
        <mxCell id="xBIu8SL80qLhHsHWxJs5-10" value="&lt;p style=&quot;margin:0px;margin-top:4px;text-align:center;&quot;&gt;&lt;b&gt;CppConstructionFactory&lt;/b&gt;&lt;/p&gt;&lt;hr size=&quot;1&quot; style=&quot;border-style:solid;&quot;&gt;&lt;p style=&quot;margin: 0px 0px 0px 4px;&quot;&gt;+ createClass(name: String): Unit*&lt;br&gt;+ createMethod(&lt;/p&gt;&lt;p style=&quot;margin: 0px 0px 0px 4px;&quot;&gt;&lt;span style=&quot;white-space: pre;&quot;&gt;&#x9;&lt;/span&gt;name: String,&lt;/p&gt;&lt;p style=&quot;margin: 0px 0px 0px 4px;&quot;&gt;&lt;span style=&quot;white-space: pre;&quot;&gt;&#x9;&lt;/span&gt;returnType: String = &quot;void&quot;,&lt;/p&gt;&lt;p style=&quot;margin: 0px 0px 0px 4px;&quot;&gt;&lt;span style=&quot;white-space: pre;&quot;&gt;&#x9;&lt;/span&gt;flags: Flags = 0&lt;/p&gt;&lt;p style=&quot;margin: 0px 0px 0px 4px;&quot;&gt;): Unit*&lt;/p&gt;&lt;p style=&quot;margin: 0px 0px 0px 4px;&quot;&gt;&lt;span style=&quot;background-color: initial;&quot;&gt;+&amp;nbsp;&lt;/span&gt;&lt;span style=&quot;background-color: initial;&quot;&gt;createStatement(text: String):&amp;nbsp;&lt;/span&gt;&lt;span style=&quot;background-color: initial;&quot;&gt;Unit*&lt;/span&gt;&lt;/p&gt;" style="verticalAlign=top;align=left;overflow=fill;html=1;whiteSpace=wrap;" parent="1" vertex="1">
          <mxGeometry x="320" y="240" width="210" height="140" as="geometry" />
        </mxCell>
        <mxCell id="xBIu8SL80qLhHsHWxJs5-11" value="" style="endArrow=block;dashed=1;endFill=0;endSize=12;html=1;rounded=0;fontSize=12;curved=1;" parent="1" source="xBIu8SL80qLhHsHWxJs5-10" target="xBIu8SL80qLhHsHWxJs5-9" edge="1">
          <mxGeometry width="160" relative="1" as="geometry">
            <mxPoint x="410" y="290" as="sourcePoint" />
            <mxPoint x="570" y="290" as="targetPoint" />
          </mxGeometry>
        </mxCell>
        <mxCell id="xBIu8SL80qLhHsHWxJs5-12" value="&lt;p style=&quot;margin:0px;margin-top:4px;text-align:center;&quot;&gt;&lt;b&gt;CsConstructionFactory&lt;/b&gt;&lt;/p&gt;&lt;hr size=&quot;1&quot; style=&quot;border-style:solid;&quot;&gt;&lt;p style=&quot;margin: 0px 0px 0px 4px;&quot;&gt;+ createClass(name: String): Unit*&lt;br&gt;+ createMethod(&lt;/p&gt;&lt;p style=&quot;margin: 0px 0px 0px 4px;&quot;&gt;&lt;span style=&quot;white-space: pre;&quot;&gt;&#x9;&lt;/span&gt;name: String,&lt;/p&gt;&lt;p style=&quot;margin: 0px 0px 0px 4px;&quot;&gt;&lt;span style=&quot;white-space: pre;&quot;&gt;&#x9;&lt;/span&gt;returnType: String = &quot;void&quot;,&lt;/p&gt;&lt;p style=&quot;margin: 0px 0px 0px 4px;&quot;&gt;&lt;span style=&quot;white-space: pre;&quot;&gt;&#x9;&lt;/span&gt;flags: Flags = 0&lt;/p&gt;&lt;p style=&quot;margin: 0px 0px 0px 4px;&quot;&gt;): Unit*&lt;/p&gt;&lt;p style=&quot;margin: 0px 0px 0px 4px;&quot;&gt;&lt;span style=&quot;background-color: initial;&quot;&gt;+&amp;nbsp;&lt;/span&gt;&lt;span style=&quot;background-color: initial;&quot;&gt;createStatement(text: String):&amp;nbsp;&lt;/span&gt;&lt;span style=&quot;background-color: initial;&quot;&gt;Unit*&lt;/span&gt;&lt;/p&gt;" style="verticalAlign=top;align=left;overflow=fill;html=1;whiteSpace=wrap;" parent="1" vertex="1">
          <mxGeometry x="1180" y="230" width="210" height="140" as="geometry" />
        </mxCell>
        <mxCell id="xBIu8SL80qLhHsHWxJs5-13" value="" style="endArrow=block;dashed=1;endFill=0;endSize=12;html=1;rounded=0;fontSize=12;curved=1;" parent="1" source="xBIu8SL80qLhHsHWxJs5-12" target="xBIu8SL80qLhHsHWxJs5-9" edge="1">
          <mxGeometry width="160" relative="1" as="geometry">
            <mxPoint x="410" y="290" as="sourcePoint" />
            <mxPoint x="570" y="290" as="targetPoint" />
          </mxGeometry>
        </mxCell>
        <mxCell id="xBIu8SL80qLhHsHWxJs5-14" value="&lt;p style=&quot;margin:0px;margin-top:4px;text-align:center;&quot;&gt;&lt;b&gt;JavaConstructionFactory&lt;/b&gt;&lt;/p&gt;&lt;hr size=&quot;1&quot; style=&quot;border-style:solid;&quot;&gt;&lt;p style=&quot;margin: 0px 0px 0px 4px;&quot;&gt;+ createClass(name: String): Unit*&lt;br&gt;+ createMethod(&lt;/p&gt;&lt;p style=&quot;margin: 0px 0px 0px 4px;&quot;&gt;&lt;span style=&quot;white-space: pre;&quot;&gt;&#x9;&lt;/span&gt;name: String,&lt;/p&gt;&lt;p style=&quot;margin: 0px 0px 0px 4px;&quot;&gt;&lt;span style=&quot;white-space: pre;&quot;&gt;&#x9;&lt;/span&gt;returnType: String = &quot;void&quot;,&lt;/p&gt;&lt;p style=&quot;margin: 0px 0px 0px 4px;&quot;&gt;&lt;span style=&quot;white-space: pre;&quot;&gt;&#x9;&lt;/span&gt;flags: Flags = 0&lt;/p&gt;&lt;p style=&quot;margin: 0px 0px 0px 4px;&quot;&gt;): Unit*&lt;/p&gt;&lt;p style=&quot;margin: 0px 0px 0px 4px;&quot;&gt;&lt;span style=&quot;background-color: initial;&quot;&gt;+&amp;nbsp;&lt;/span&gt;&lt;span style=&quot;background-color: initial;&quot;&gt;createStatement(text: String):&amp;nbsp;&lt;/span&gt;&lt;span style=&quot;background-color: initial;&quot;&gt;Unit*&lt;/span&gt;&lt;/p&gt;" style="verticalAlign=top;align=left;overflow=fill;html=1;whiteSpace=wrap;" parent="1" vertex="1">
          <mxGeometry x="1920" y="240" width="210" height="140" as="geometry" />
        </mxCell>
        <mxCell id="xBIu8SL80qLhHsHWxJs5-15" value="" style="endArrow=block;dashed=1;endFill=0;endSize=12;html=1;rounded=0;fontSize=12;curved=1;" parent="1" source="xBIu8SL80qLhHsHWxJs5-14" target="xBIu8SL80qLhHsHWxJs5-9" edge="1">
          <mxGeometry width="160" relative="1" as="geometry">
            <mxPoint x="410" y="290" as="sourcePoint" />
            <mxPoint x="570" y="290" as="targetPoint" />
          </mxGeometry>
        </mxCell>
        <mxCell id="xBIu8SL80qLhHsHWxJs5-18" value="&lt;p style=&quot;margin:0px;margin-top:4px;text-align:center;&quot;&gt;&lt;b&gt;ClassCppUnit&lt;/b&gt;&lt;br&gt;&lt;/p&gt;&lt;hr size=&quot;1&quot; style=&quot;border-style:solid;&quot;&gt;&lt;p style=&quot;margin:0px;margin-left:4px;&quot;&gt;- _name: String&lt;/p&gt;&lt;p style=&quot;margin:0px;margin-left:4px;&quot;&gt;-&amp;nbsp;_accessBlocks:&amp;nbsp;QVector&amp;lt;&lt;/p&gt;&lt;p style=&quot;margin:0px;margin-left:4px;&quot;&gt;&lt;span style=&quot;white-space: pre;&quot;&gt;&#x9;&lt;/span&gt;QVector&amp;lt;&lt;span style=&quot;background-color: initial;&quot;&gt;QSharedPointer&amp;lt;Unit&amp;gt;&lt;/span&gt;&lt;span style=&quot;background-color: initial;&quot;&gt;&amp;gt;&lt;/span&gt;&lt;span style=&quot;background-color: initial;&quot;&gt;&amp;gt;&lt;/span&gt;&lt;/p&gt;&lt;hr size=&quot;1&quot; style=&quot;border-style:solid;&quot;&gt;&lt;p style=&quot;margin:0px;margin-left:4px;&quot;&gt;+ add(unit: QSharedPointer&amp;lt;Unit&amp;gt;,&lt;/p&gt;&lt;p style=&quot;margin:0px;margin-left:4px;&quot;&gt;&lt;span style=&quot;white-space: pre;&quot;&gt;&#x9;&lt;/span&gt;accessModifier:&amp;nbsp;&lt;span style=&quot;background-color: initial;&quot;&gt;Flags&lt;/span&gt;&lt;span style=&quot;background-color: initial;&quot;&gt;)&lt;/span&gt;&lt;/p&gt;&lt;p style=&quot;margin:0px;margin-left:4px;&quot;&gt;&lt;span style=&quot;background-color: initial;&quot;&gt;+&amp;nbsp;&lt;/span&gt;&lt;span style=&quot;background-color: initial;&quot;&gt;compile(&lt;/span&gt;&lt;span style=&quot;background-color: initial;&quot;&gt;level: UnlimitedNatural = 0&lt;/span&gt;&lt;span style=&quot;background-color: initial;&quot;&gt;): String&lt;/span&gt;&lt;/p&gt;" style="verticalAlign=top;align=left;overflow=fill;html=1;whiteSpace=wrap;" parent="1" vertex="1">
          <mxGeometry x="40" y="440" width="250" height="140" as="geometry" />
        </mxCell>
        <mxCell id="xBIu8SL80qLhHsHWxJs5-19" value="" style="endArrow=block;dashed=1;endFill=0;endSize=12;html=1;rounded=0;fontSize=12;curved=1;" parent="1" source="xBIu8SL80qLhHsHWxJs5-18" target="xBIu8SL80qLhHsHWxJs5-8" edge="1">
          <mxGeometry width="160" relative="1" as="geometry">
            <mxPoint x="680" y="330" as="sourcePoint" />
            <mxPoint x="840" y="330" as="targetPoint" />
          </mxGeometry>
        </mxCell>
        <mxCell id="xBIu8SL80qLhHsHWxJs5-21" value="&lt;div&gt;&lt;br&gt;&lt;/div&gt;" style="endArrow=open;endSize=12;dashed=1;html=1;rounded=0;fontSize=12;curved=1;" parent="1" source="xBIu8SL80qLhHsHWxJs5-10" target="xBIu8SL80qLhHsHWxJs5-18" edge="1">
          <mxGeometry width="160" relative="1" as="geometry">
            <mxPoint x="470" y="650" as="sourcePoint" />
            <mxPoint x="630" y="650" as="targetPoint" />
          </mxGeometry>
        </mxCell>
        <mxCell id="xBIu8SL80qLhHsHWxJs5-22" value="&lt;p style=&quot;margin:0px;margin-top:4px;text-align:center;&quot;&gt;&lt;b&gt;MethodCppUnit&lt;/b&gt;&lt;br&gt;&lt;/p&gt;&lt;hr size=&quot;1&quot; style=&quot;border-style:solid;&quot;&gt;&lt;p style=&quot;margin:0px;margin-left:4px;&quot;&gt;- _name: String&lt;/p&gt;&lt;p style=&quot;margin:0px;margin-left:4px;&quot;&gt;-&amp;nbsp;_returnType: String&lt;/p&gt;&lt;p style=&quot;margin:0px;margin-left:4px;&quot;&gt;-&amp;nbsp;_flags: Flags&lt;/p&gt;&lt;p style=&quot;margin:0px;margin-left:4px;&quot;&gt;-&amp;nbsp;_units:&amp;nbsp;QVector&amp;lt;QSharedPointer&amp;lt;Unit&amp;gt;&amp;gt;&lt;/p&gt;&lt;hr size=&quot;1&quot; style=&quot;border-style:solid;&quot;&gt;&lt;p style=&quot;margin: 0px 0px 0px 4px;&quot;&gt;+ add(unit: QSharedPointer&amp;lt;Unit&amp;gt;,&lt;/p&gt;&lt;p style=&quot;margin: 0px 0px 0px 4px;&quot;&gt;&lt;span style=&quot;white-space: pre;&quot;&gt;&#x9;&lt;/span&gt;accessModifier:&amp;nbsp;&lt;span style=&quot;background-color: initial;&quot;&gt;Flags&lt;/span&gt;&lt;span style=&quot;background-color: initial;&quot;&gt;)&lt;/span&gt;&lt;/p&gt;&lt;p style=&quot;margin: 0px 0px 0px 4px;&quot;&gt;&lt;span style=&quot;background-color: initial;&quot;&gt;+&amp;nbsp;&lt;/span&gt;&lt;span style=&quot;background-color: initial;&quot;&gt;compile(&lt;/span&gt;&lt;span style=&quot;background-color: initial;&quot;&gt;level: UnlimitedNatural = 0&lt;/span&gt;&lt;span style=&quot;background-color: initial;&quot;&gt;): String&lt;/span&gt;&lt;/p&gt;" style="verticalAlign=top;align=left;overflow=fill;html=1;whiteSpace=wrap;" parent="1" vertex="1">
          <mxGeometry x="320" y="440" width="250" height="150" as="geometry" />
        </mxCell>
        <mxCell id="xBIu8SL80qLhHsHWxJs5-24" value="" style="endArrow=block;dashed=1;endFill=0;endSize=12;html=1;rounded=0;fontSize=12;curved=1;" parent="1" source="xBIu8SL80qLhHsHWxJs5-22" target="xBIu8SL80qLhHsHWxJs5-8" edge="1">
          <mxGeometry width="160" relative="1" as="geometry">
            <mxPoint x="290" y="720" as="sourcePoint" />
            <mxPoint x="450" y="720" as="targetPoint" />
          </mxGeometry>
        </mxCell>
        <mxCell id="xBIu8SL80qLhHsHWxJs5-25" value="" style="endArrow=open;endSize=12;dashed=1;html=1;rounded=0;fontSize=12;curved=1;" parent="1" source="xBIu8SL80qLhHsHWxJs5-10" target="xBIu8SL80qLhHsHWxJs5-22" edge="1">
          <mxGeometry width="160" relative="1" as="geometry">
            <mxPoint x="660" y="770" as="sourcePoint" />
            <mxPoint x="820" y="770" as="targetPoint" />
          </mxGeometry>
        </mxCell>
        <mxCell id="xBIu8SL80qLhHsHWxJs5-26" value="&lt;p style=&quot;margin:0px;margin-top:4px;text-align:center;&quot;&gt;&lt;b&gt;PrintOperatorCppUnit&lt;/b&gt;&lt;br&gt;&lt;/p&gt;&lt;hr size=&quot;1&quot; style=&quot;border-style:solid;&quot;&gt;&lt;p style=&quot;margin:0px;margin-left:4px;&quot;&gt;- _text: String&lt;/p&gt;&lt;hr size=&quot;1&quot; style=&quot;border-style:solid;&quot;&gt;&lt;p style=&quot;margin:0px;margin-left:4px;&quot;&gt;&lt;span style=&quot;background-color: initial;&quot;&gt;+&amp;nbsp;&lt;/span&gt;&lt;span style=&quot;background-color: initial;&quot;&gt;compile(&lt;/span&gt;&lt;span style=&quot;background-color: initial;&quot;&gt;level: UnlimitedNatural = 0&lt;/span&gt;&lt;span style=&quot;background-color: initial;&quot;&gt;): String&lt;/span&gt;&lt;br&gt;&lt;/p&gt;" style="verticalAlign=top;align=left;overflow=fill;html=1;whiteSpace=wrap;" parent="1" vertex="1">
          <mxGeometry x="600" y="440" width="250" height="80" as="geometry" />
        </mxCell>
        <mxCell id="xBIu8SL80qLhHsHWxJs5-27" value="" style="endArrow=block;dashed=1;endFill=0;endSize=12;html=1;rounded=0;fontSize=12;curved=1;" parent="1" source="xBIu8SL80qLhHsHWxJs5-26" target="xBIu8SL80qLhHsHWxJs5-8" edge="1">
          <mxGeometry width="160" relative="1" as="geometry">
            <mxPoint x="600" y="680" as="sourcePoint" />
            <mxPoint x="760" y="680" as="targetPoint" />
          </mxGeometry>
        </mxCell>
        <mxCell id="xBIu8SL80qLhHsHWxJs5-28" value="" style="endArrow=open;endSize=12;dashed=1;html=1;rounded=0;fontSize=12;curved=1;" parent="1" source="xBIu8SL80qLhHsHWxJs5-10" target="xBIu8SL80qLhHsHWxJs5-26" edge="1">
          <mxGeometry width="160" relative="1" as="geometry">
            <mxPoint x="770" y="860" as="sourcePoint" />
            <mxPoint x="930" y="860" as="targetPoint" />
          </mxGeometry>
        </mxCell>
        <mxCell id="xBIu8SL80qLhHsHWxJs5-30" value="&lt;p style=&quot;margin:0px;margin-top:4px;text-align:center;&quot;&gt;&lt;b&gt;ClassCsUnit&lt;/b&gt;&lt;br&gt;&lt;/p&gt;&lt;hr size=&quot;1&quot; style=&quot;border-style:solid;&quot;&gt;&lt;p style=&quot;margin: 0px 0px 0px 4px;&quot;&gt;- _name: String&lt;/p&gt;&lt;p style=&quot;margin: 0px 0px 0px 4px;&quot;&gt;-&amp;nbsp;_accessBlocks:&amp;nbsp;QVector&amp;lt;&lt;/p&gt;&lt;p style=&quot;margin: 0px 0px 0px 4px;&quot;&gt;&lt;span style=&quot;white-space: pre;&quot;&gt;&#x9;&lt;/span&gt;QVector&amp;lt;&lt;span style=&quot;background-color: initial;&quot;&gt;QSharedPointer&amp;lt;Unit&amp;gt;&lt;/span&gt;&lt;span style=&quot;background-color: initial;&quot;&gt;&amp;gt;&lt;/span&gt;&lt;span style=&quot;background-color: initial;&quot;&gt;&amp;gt;&lt;/span&gt;&lt;/p&gt;&lt;hr style=&quot;border-style: solid;&quot; size=&quot;1&quot;&gt;&lt;p style=&quot;margin: 0px 0px 0px 4px;&quot;&gt;+ add(unit: QSharedPointer&amp;lt;Unit&amp;gt;,&lt;/p&gt;&lt;p style=&quot;margin: 0px 0px 0px 4px;&quot;&gt;&lt;span style=&quot;white-space: pre;&quot;&gt;&#x9;&lt;/span&gt;accessModifier:&amp;nbsp;&lt;span style=&quot;background-color: initial;&quot;&gt;Flags&lt;/span&gt;&lt;span style=&quot;background-color: initial;&quot;&gt;)&lt;/span&gt;&lt;/p&gt;&lt;p style=&quot;margin: 0px 0px 0px 4px;&quot;&gt;&lt;span style=&quot;background-color: initial;&quot;&gt;+&amp;nbsp;&lt;/span&gt;&lt;span style=&quot;background-color: initial;&quot;&gt;compile(&lt;/span&gt;&lt;span style=&quot;background-color: initial;&quot;&gt;level: UnlimitedNatural = 0&lt;/span&gt;&lt;span style=&quot;background-color: initial;&quot;&gt;): String&lt;/span&gt;&lt;/p&gt;" style="verticalAlign=top;align=left;overflow=fill;html=1;whiteSpace=wrap;" parent="1" vertex="1">
          <mxGeometry x="880" y="440" width="250" height="140" as="geometry" />
        </mxCell>
        <mxCell id="xBIu8SL80qLhHsHWxJs5-33" value="&lt;p style=&quot;margin:0px;margin-top:4px;text-align:center;&quot;&gt;&lt;b&gt;MethodCsUnit&lt;/b&gt;&lt;br&gt;&lt;/p&gt;&lt;hr size=&quot;1&quot; style=&quot;border-style:solid;&quot;&gt;&lt;p style=&quot;margin:0px;margin-left:4px;&quot;&gt;- _name: String&lt;/p&gt;&lt;p style=&quot;margin:0px;margin-left:4px;&quot;&gt;-&amp;nbsp;_returnType: String&lt;/p&gt;&lt;p style=&quot;margin:0px;margin-left:4px;&quot;&gt;-&amp;nbsp;_flags: Flags&lt;/p&gt;&lt;p style=&quot;margin:0px;margin-left:4px;&quot;&gt;-&amp;nbsp;_units:&amp;nbsp;QVector&amp;lt;QSharedPointer&amp;lt;Unit&amp;gt;&amp;gt;&lt;/p&gt;&lt;hr size=&quot;1&quot; style=&quot;border-style:solid;&quot;&gt;&lt;p style=&quot;margin: 0px 0px 0px 4px;&quot;&gt;+ add(unit: QSharedPointer&amp;lt;Unit&amp;gt;,&lt;/p&gt;&lt;p style=&quot;margin: 0px 0px 0px 4px;&quot;&gt;&lt;span style=&quot;white-space: pre;&quot;&gt;&#x9;&lt;/span&gt;accessModifier:&amp;nbsp;&lt;span style=&quot;background-color: initial;&quot;&gt;Flags&lt;/span&gt;&lt;span style=&quot;background-color: initial;&quot;&gt;)&lt;/span&gt;&lt;/p&gt;&lt;p style=&quot;margin: 0px 0px 0px 4px;&quot;&gt;&lt;span style=&quot;background-color: initial;&quot;&gt;+&amp;nbsp;&lt;/span&gt;&lt;span style=&quot;background-color: initial;&quot;&gt;compile(&lt;/span&gt;&lt;span style=&quot;background-color: initial;&quot;&gt;level: UnlimitedNatural = 0&lt;/span&gt;&lt;span style=&quot;background-color: initial;&quot;&gt;): String&lt;/span&gt;&lt;/p&gt;" style="verticalAlign=top;align=left;overflow=fill;html=1;whiteSpace=wrap;" parent="1" vertex="1">
          <mxGeometry x="1160" y="440" width="250" height="150" as="geometry" />
        </mxCell>
        <mxCell id="xBIu8SL80qLhHsHWxJs5-34" value="&lt;p style=&quot;margin:0px;margin-top:4px;text-align:center;&quot;&gt;&lt;b&gt;PrintOperatorCsUnit&lt;/b&gt;&lt;br&gt;&lt;/p&gt;&lt;hr size=&quot;1&quot; style=&quot;border-style:solid;&quot;&gt;&lt;p style=&quot;margin:0px;margin-left:4px;&quot;&gt;- _text: String&lt;/p&gt;&lt;hr size=&quot;1&quot; style=&quot;border-style:solid;&quot;&gt;&lt;p style=&quot;margin:0px;margin-left:4px;&quot;&gt;&lt;span style=&quot;background-color: initial;&quot;&gt;+&amp;nbsp;&lt;/span&gt;&lt;span style=&quot;background-color: initial;&quot;&gt;compile(&lt;/span&gt;&lt;span style=&quot;background-color: initial;&quot;&gt;level: UnlimitedNatural = 0&lt;/span&gt;&lt;span style=&quot;background-color: initial;&quot;&gt;): String&lt;/span&gt;&lt;br&gt;&lt;/p&gt;" style="verticalAlign=top;align=left;overflow=fill;html=1;whiteSpace=wrap;" parent="1" vertex="1">
          <mxGeometry x="1440" y="440" width="250" height="80" as="geometry" />
        </mxCell>
        <mxCell id="xBIu8SL80qLhHsHWxJs5-36" value="" style="endArrow=block;dashed=1;endFill=0;endSize=12;html=1;rounded=0;fontSize=12;curved=1;" parent="1" source="xBIu8SL80qLhHsHWxJs5-33" target="xBIu8SL80qLhHsHWxJs5-8" edge="1">
          <mxGeometry width="160" relative="1" as="geometry">
            <mxPoint x="1169" y="670" as="sourcePoint" />
            <mxPoint x="1329" y="670" as="targetPoint" />
          </mxGeometry>
        </mxCell>
        <mxCell id="xBIu8SL80qLhHsHWxJs5-37" value="" style="endArrow=open;endSize=12;dashed=1;html=1;rounded=0;fontSize=12;curved=1;" parent="1" source="xBIu8SL80qLhHsHWxJs5-12" target="xBIu8SL80qLhHsHWxJs5-33" edge="1">
          <mxGeometry width="160" relative="1" as="geometry">
            <mxPoint x="1350" y="710" as="sourcePoint" />
            <mxPoint x="1510" y="710" as="targetPoint" />
          </mxGeometry>
        </mxCell>
        <mxCell id="xBIu8SL80qLhHsHWxJs5-38" value="" style="endArrow=open;endSize=12;dashed=1;html=1;rounded=0;fontSize=12;curved=1;" parent="1" source="xBIu8SL80qLhHsHWxJs5-12" target="xBIu8SL80qLhHsHWxJs5-30" edge="1">
          <mxGeometry width="160" relative="1" as="geometry">
            <mxPoint x="1213" y="390" as="sourcePoint" />
            <mxPoint x="1249" y="450" as="targetPoint" />
          </mxGeometry>
        </mxCell>
        <mxCell id="xBIu8SL80qLhHsHWxJs5-39" value="" style="endArrow=open;endSize=12;dashed=1;html=1;rounded=0;fontSize=12;curved=1;" parent="1" source="xBIu8SL80qLhHsHWxJs5-12" target="xBIu8SL80qLhHsHWxJs5-34" edge="1">
          <mxGeometry width="160" relative="1" as="geometry">
            <mxPoint x="1213" y="390" as="sourcePoint" />
            <mxPoint x="1249" y="450" as="targetPoint" />
          </mxGeometry>
        </mxCell>
        <mxCell id="xBIu8SL80qLhHsHWxJs5-40" value="&lt;p style=&quot;margin:0px;margin-top:4px;text-align:center;&quot;&gt;&lt;b&gt;ClassJavaUnit&lt;/b&gt;&lt;br&gt;&lt;/p&gt;&lt;hr size=&quot;1&quot; style=&quot;border-style:solid;&quot;&gt;&lt;p style=&quot;margin: 0px 0px 0px 4px;&quot;&gt;- _name: String&lt;/p&gt;&lt;p style=&quot;margin: 0px 0px 0px 4px;&quot;&gt;-&amp;nbsp;_accessBlocks:&amp;nbsp;QVector&amp;lt;&lt;/p&gt;&lt;p style=&quot;margin: 0px 0px 0px 4px;&quot;&gt;&lt;span style=&quot;white-space: pre;&quot;&gt;&#x9;&lt;/span&gt;QVector&amp;lt;&lt;span style=&quot;background-color: initial;&quot;&gt;QSharedPointer&amp;lt;Unit&amp;gt;&lt;/span&gt;&lt;span style=&quot;background-color: initial;&quot;&gt;&amp;gt;&lt;/span&gt;&lt;span style=&quot;background-color: initial;&quot;&gt;&amp;gt;&lt;/span&gt;&lt;/p&gt;&lt;hr style=&quot;border-style: solid;&quot; size=&quot;1&quot;&gt;&lt;p style=&quot;margin: 0px 0px 0px 4px;&quot;&gt;+ add(unit: QSharedPointer&amp;lt;Unit&amp;gt;,&lt;/p&gt;&lt;p style=&quot;margin: 0px 0px 0px 4px;&quot;&gt;&lt;span style=&quot;white-space: pre;&quot;&gt;&#x9;&lt;/span&gt;accessModifier:&amp;nbsp;&lt;span style=&quot;background-color: initial;&quot;&gt;Flags&lt;/span&gt;&lt;span style=&quot;background-color: initial;&quot;&gt;)&lt;/span&gt;&lt;/p&gt;&lt;p style=&quot;margin: 0px 0px 0px 4px;&quot;&gt;&lt;span style=&quot;background-color: initial;&quot;&gt;+&amp;nbsp;&lt;/span&gt;&lt;span style=&quot;background-color: initial;&quot;&gt;compile(&lt;/span&gt;&lt;span style=&quot;background-color: initial;&quot;&gt;level: UnlimitedNatural = 0&lt;/span&gt;&lt;span style=&quot;background-color: initial;&quot;&gt;): String&lt;/span&gt;&lt;/p&gt;" style="verticalAlign=top;align=left;overflow=fill;html=1;whiteSpace=wrap;" parent="1" vertex="1">
          <mxGeometry x="1720" y="440" width="250" height="140" as="geometry" />
        </mxCell>
        <mxCell id="xBIu8SL80qLhHsHWxJs5-41" value="&lt;p style=&quot;margin:0px;margin-top:4px;text-align:center;&quot;&gt;&lt;b&gt;MethodJavaUnit&lt;/b&gt;&lt;br&gt;&lt;/p&gt;&lt;hr size=&quot;1&quot; style=&quot;border-style:solid;&quot;&gt;&lt;p style=&quot;margin:0px;margin-left:4px;&quot;&gt;- _name: String&lt;/p&gt;&lt;p style=&quot;margin:0px;margin-left:4px;&quot;&gt;-&amp;nbsp;_returnType: String&lt;/p&gt;&lt;p style=&quot;margin:0px;margin-left:4px;&quot;&gt;-&amp;nbsp;_flags: Flags&lt;/p&gt;&lt;p style=&quot;margin:0px;margin-left:4px;&quot;&gt;-&amp;nbsp;_units:&amp;nbsp;QVector&amp;lt;QSharedPointer&amp;lt;Unit&amp;gt;&amp;gt;&lt;/p&gt;&lt;hr size=&quot;1&quot; style=&quot;border-style:solid;&quot;&gt;&lt;p style=&quot;margin: 0px 0px 0px 4px;&quot;&gt;+ add(unit: QSharedPointer&amp;lt;Unit&amp;gt;,&lt;/p&gt;&lt;p style=&quot;margin: 0px 0px 0px 4px;&quot;&gt;&lt;span style=&quot;white-space: pre;&quot;&gt;&#x9;&lt;/span&gt;accessModifier:&amp;nbsp;&lt;span style=&quot;background-color: initial;&quot;&gt;Flags&lt;/span&gt;&lt;span style=&quot;background-color: initial;&quot;&gt;)&lt;/span&gt;&lt;/p&gt;&lt;p style=&quot;margin: 0px 0px 0px 4px;&quot;&gt;&lt;span style=&quot;background-color: initial;&quot;&gt;+&amp;nbsp;&lt;/span&gt;&lt;span style=&quot;background-color: initial;&quot;&gt;compile(&lt;/span&gt;&lt;span style=&quot;background-color: initial;&quot;&gt;level: UnlimitedNatural = 0&lt;/span&gt;&lt;span style=&quot;background-color: initial;&quot;&gt;): String&lt;/span&gt;&lt;/p&gt;" style="verticalAlign=top;align=left;overflow=fill;html=1;whiteSpace=wrap;" parent="1" vertex="1">
          <mxGeometry x="2000" y="440" width="250" height="150" as="geometry" />
        </mxCell>
        <mxCell id="xBIu8SL80qLhHsHWxJs5-42" value="&lt;p style=&quot;margin:0px;margin-top:4px;text-align:center;&quot;&gt;&lt;b&gt;PrintOperatorJavaUnit&lt;/b&gt;&lt;br&gt;&lt;/p&gt;&lt;hr size=&quot;1&quot; style=&quot;border-style:solid;&quot;&gt;&lt;p style=&quot;margin:0px;margin-left:4px;&quot;&gt;- _text: String&lt;/p&gt;&lt;hr size=&quot;1&quot; style=&quot;border-style:solid;&quot;&gt;&lt;p style=&quot;margin:0px;margin-left:4px;&quot;&gt;&lt;span style=&quot;background-color: initial;&quot;&gt;+&amp;nbsp;&lt;/span&gt;&lt;span style=&quot;background-color: initial;&quot;&gt;compile(&lt;/span&gt;&lt;span style=&quot;background-color: initial;&quot;&gt;level: UnlimitedNatural = 0&lt;/span&gt;&lt;span style=&quot;background-color: initial;&quot;&gt;): String&lt;/span&gt;&lt;br&gt;&lt;/p&gt;" style="verticalAlign=top;align=left;overflow=fill;html=1;whiteSpace=wrap;" parent="1" vertex="1">
          <mxGeometry x="2270" y="440" width="250" height="80" as="geometry" />
        </mxCell>
        <mxCell id="xBIu8SL80qLhHsHWxJs5-43" value="" style="endArrow=open;endSize=12;dashed=1;html=1;rounded=0;fontSize=12;curved=1;" parent="1" source="xBIu8SL80qLhHsHWxJs5-14" target="xBIu8SL80qLhHsHWxJs5-40" edge="1">
          <mxGeometry width="160" relative="1" as="geometry">
            <mxPoint x="1720" y="320" as="sourcePoint" />
            <mxPoint x="1841" y="395" as="targetPoint" />
          </mxGeometry>
        </mxCell>
        <mxCell id="xBIu8SL80qLhHsHWxJs5-44" value="" style="endArrow=open;endSize=12;dashed=1;html=1;rounded=0;fontSize=12;curved=1;" parent="1" source="xBIu8SL80qLhHsHWxJs5-14" target="xBIu8SL80qLhHsHWxJs5-41" edge="1">
          <mxGeometry width="160" relative="1" as="geometry">
            <mxPoint x="1810" y="300" as="sourcePoint" />
            <mxPoint x="1889" y="420" as="targetPoint" />
          </mxGeometry>
        </mxCell>
        <mxCell id="xBIu8SL80qLhHsHWxJs5-45" value="" style="endArrow=open;endSize=12;dashed=1;html=1;rounded=0;fontSize=12;curved=1;" parent="1" source="xBIu8SL80qLhHsHWxJs5-14" target="xBIu8SL80qLhHsHWxJs5-42" edge="1">
          <mxGeometry width="160" relative="1" as="geometry">
            <mxPoint x="1740" y="340" as="sourcePoint" />
            <mxPoint x="1819" y="460" as="targetPoint" />
          </mxGeometry>
        </mxCell>
        <mxCell id="xBIu8SL80qLhHsHWxJs5-46" value="" style="endArrow=block;dashed=1;endFill=0;endSize=12;html=1;rounded=0;fontSize=12;curved=1;" parent="1" source="xBIu8SL80qLhHsHWxJs5-40" target="xBIu8SL80qLhHsHWxJs5-8" edge="1">
          <mxGeometry width="160" relative="1" as="geometry">
            <mxPoint x="1600" y="640" as="sourcePoint" />
            <mxPoint x="1600" y="730" as="targetPoint" />
          </mxGeometry>
        </mxCell>
        <mxCell id="xBIu8SL80qLhHsHWxJs5-47" value="" style="endArrow=block;dashed=1;endFill=0;endSize=12;html=1;rounded=0;fontSize=12;curved=1;" parent="1" source="xBIu8SL80qLhHsHWxJs5-34" target="xBIu8SL80qLhHsHWxJs5-8" edge="1">
          <mxGeometry width="160" relative="1" as="geometry">
            <mxPoint x="1305" y="610" as="sourcePoint" />
            <mxPoint x="1305" y="700" as="targetPoint" />
          </mxGeometry>
        </mxCell>
      </root>
    </mxGraphModel>
  </diagram>
</mxfile>
